<svg width="32" height="32" viewBox="0 0 32 32" fill="none" xmlns="http://www.w3.org/2000/svg">
<g clip-path="url(#clip0_102_429)">
<path d="M12.3392 15.3726C9.9415 6.18658 17.6679 2.11991 21.194 0.85842C20.2208 0.52541 19.2081 0.282707 18.1587 0.141602C14.9401 1.99291 9.70736 7.62586 12.3392 15.3726Z" fill="#E23C18"/>
<path d="M12.3438 16.6646C6.95315 8.85581 12.8121 2.39598 15.6979 0C14.64 0.0197548 13.6076 0.141106 12.609 0.355587C10.2169 3.19464 7.22114 10.281 12.3438 16.6618V16.6646Z" fill="#E23C18"/>
<path d="M13.6252 18.8609C4.47992 16.3435 4.81843 7.62601 5.4898 3.9375C4.70559 4.62045 3.98909 5.3796 3.35157 6.20366C3.34593 9.91757 5.60545 17.2664 13.6252 18.8609Z" fill="#E23C18"/>
<path d="M12.7898 17.8757C5.05212 12.3782 8.35819 4.29567 10.251 1.06152C9.27215 1.43969 8.34126 1.90816 7.46679 2.46412C6.19175 5.95225 5.79965 13.6312 12.7926 17.8757H12.7898Z" fill="#E23C18"/>
<path d="M16.0197 19.7185C7.38787 23.6751 2.04513 16.7638 0.19464 13.5127C0.067701 14.3226 0 15.1552 0 16.0018C0 16.2135 0.00846262 16.4223 0.0169252 16.6311C2.40056 19.4815 8.8519 23.6554 16.0197 19.7185Z" fill="#E23C18"/>
<path d="M13.5957 13.1624C17.6634 4.58035 26.1965 6.44012 29.7057 7.74112C29.1669 6.84651 28.5435 6.00834 27.8439 5.24072C24.1909 4.58881 16.5604 5.53422 13.5957 13.1652V13.1624Z" fill="#E23C18"/>
<path d="M12.7734 14.1554C13.662 4.70408 22.3052 3.52726 26.0513 3.54701C25.2445 2.8951 24.3757 2.32221 23.4533 1.83398C19.7974 2.47178 12.9512 5.97121 12.7734 14.1554Z" fill="#E23C18"/>
<path d="M14.7476 19.4982C5.2864 20.2658 2.62632 11.9462 1.99726 8.25488C1.49797 9.15796 1.08048 10.1147 0.761719 11.1137C2.02265 14.6046 6.65735 20.7456 14.7448 19.501L14.7476 19.4982Z" fill="#E23C18"/>
<path d="M14.7109 12.5136C21.4641 5.8421 28.8463 10.5042 31.7011 12.9284C31.5008 11.8955 31.1989 10.8965 30.8097 9.94264C27.5995 8.08004 20.1044 6.35573 14.7109 12.5136Z" fill="#E23C18"/>
<path d="M19.6568 15.3359C25.0474 23.1447 19.1857 29.6046 16.3027 32.0005C17.3606 31.9808 18.393 31.8594 19.3916 31.645C21.7837 28.8059 24.7795 21.7196 19.6568 15.3388V15.3359Z" fill="#E23C18"/>
<path d="M17.252 12.4988C26.7132 11.7312 29.3704 20.0508 29.9995 23.745C30.4988 22.8419 30.9163 21.8852 31.235 20.8862C29.9741 17.3952 25.3394 11.2543 17.252 12.4988Z" fill="#E23C18"/>
<path d="M18.375 13.1396C27.5231 15.6542 27.1818 24.3745 26.5132 28.063C27.2974 27.3801 28.0139 26.6209 28.6514 25.7969C28.6571 22.0829 26.3976 14.7341 18.3778 13.1396H18.375Z" fill="#E23C18"/>
<path d="M31.9833 15.3692C29.5996 12.5188 23.1483 8.3449 15.9805 12.2818C24.6095 8.32233 29.9523 15.2337 31.8056 18.4876C31.9325 17.6776 32.0002 16.8451 32.0002 15.9985C32.0002 15.7868 31.9918 15.578 31.9833 15.3692Z" fill="#E23C18"/>
<path d="M19.209 14.1249C26.9495 19.6224 23.6406 27.7049 21.7506 30.9363C22.7294 30.5581 23.6603 30.0896 24.5348 29.5337C25.8098 26.0455 26.2019 18.3665 19.209 14.1221V14.1249Z" fill="#E23C18"/>
<path d="M18.403 18.8349C14.3353 27.4169 5.80214 25.5571 2.29297 24.2561C2.83176 25.1508 3.45517 25.9889 4.15475 26.7565C7.80778 27.4084 15.4382 26.463 18.403 18.832V18.8349Z" fill="#E23C18"/>
<path d="M17.2909 19.4871C10.5377 26.1586 3.15551 21.4965 0.300781 19.0723C0.501063 20.1052 0.802897 21.1042 1.19218 22.0581C4.40233 23.9207 11.8974 25.645 17.2909 19.4871Z" fill="#E23C18"/>
<path d="M19.2271 17.8418C18.3385 27.2931 9.69534 28.4699 5.94922 28.4501C6.75599 29.102 7.62482 29.6749 8.54724 30.1632C12.2031 29.5254 19.0494 26.0259 19.2271 17.8418Z" fill="#E23C18"/>
<path d="M19.6614 16.625C22.0591 25.811 14.3327 29.8777 10.8066 31.1392C11.7798 31.4722 12.7925 31.7149 13.8419 31.856C17.0605 30.0047 22.2932 24.3717 19.6614 16.625Z" fill="#E23C18"/>
</g>
<defs>
<clipPath id="clip0_102_429">
<rect width="32" height="32" fill="white"/>
</clipPath>
</defs>
</svg>
